Coordinates
version=1
nRows=4
nColumns=107
inDegrees=yes

Units are S.I. units (second, meters, Newtons, ...)
If the header above contains a line with 'inDegrees', this indicates whether rotational values are in degrees (yes) or radians (no).

endheader
time	sternoclavicular_r2	sternoclavicular_r3	unrotscap_r3	unrotscap_r2	acromioclavicular_r2	acromioclavicular_r3	acromioclavicular_r1	unrothum_r1	unrothum_r3	unrothum_r2	elv_angle	shoulder_elv	shoulder1_r2	shoulder_rot	elbow_flexion	pro_sup	deviation	flexion	proximal_distal_r1	proximal_distal_r3	cmc_flexion	cmc_abduction	mp_flexion	ip_flexion	mcp2_flexion	mcp2_abduction	pm2_flexion	md2_flexion	mcp3_flexion	mcp3_abduction	pm3_flexion	md3_flexion	mcp4_flexion	mcp4_abduction	pm4_flexion	md4_flexion	mcp5_flexion	mcp5_abduction	pm5_flexion	md5_flexion	bicpt_tx	bicpt_ty	bicpt_tz	bicpt2_tx	bicpt2_ty	bicpt2_tz	ptpt_tx	ptpt_ty	ptpt_tz	FCUpt_tx	FCUpt_ty	FCUpt_tz	EDCpt_tx	EDCpt_ty	EDCpt_tz	APLpt_tx	APLpt_ty	APLpt_tz	FPLpt_tx	FPLpt_ty	FPLpt_tz	FPLpt2_tx	FPLpt2_ty	FPLpt2_tz	PEC1pt2_tx	PEC1pt2_ty	PEC1pt2_tz	PEC1pt3_tx	PEC1pt3_ty	PEC1pt3_tz	PEC2pt2_tx	PEC2pt2_ty	PEC2pt2_tz	PEC2pt3_tx	PEC2pt3_ty	PEC2pt3_tz	PEC3pt2_tx	PEC3pt2_ty	PEC3pt2_tz	PEC3pt3_tx	PEC3pt3_ty	PEC3pt3_tz	DELT2pt2a_tx	DELT2pt2a_ty	DELT2pt2a_tz	DELT2pt2_tx	DELT2pt2_ty	DELT2pt2_tz	LAT1pt2_tx	LAT1pt2_ty	LAT1pt2_tz	LAT1pt3_tx	LAT1pt3_ty	LAT1pt3_tz	LAT2pt2_tx	LAT2pt2_ty	LAT2pt2_tz	LAT2pt3_tx	LAT2pt3_ty	LAT2pt3_tz	LAT3pt2_tx	LAT3pt2_ty	LAT3pt2_tz	LAT3pt3_tx	LAT3pt3_ty	LAT3pt3_tz
      1.80000000	     -0.28031619	      0.11872871	     -0.11872871	      0.28031619	     -0.05675833	      0.45870082	      0.20618286	     -0.20618286	     -0.45870082	      0.05675833	    114.28573099	     66.36734897	     -1.99466229	    -89.25298277	     42.77359204	     82.51329675	      0.43202925	     -1.21011637	      0.43355079	     -0.60505819	    -14.15980814	      1.71258475	    -33.17866390	      0.07842861	     -1.39626937	    -13.42086098	     19.20348546	    -28.95060173	    -28.68309205	    -13.37569838	     29.13038279	     20.25826563	    -54.00700474	    -12.16256628	     25.76806272	     26.26672932	    -73.28311595	     -8.36905195	     27.26914515	      5.16761248	      0.00131482	     -0.03250251	     -0.00508967	      0.01458644	     -0.02181966	     -0.00166462	      0.00145320	     -0.06884229	     -0.00669689	      0.01233934	     -0.18235409	     -0.00000767	     -0.00990157	      0.00338855	     -0.00064855	      0.00001177	      0.00000471	      0.00002354	      0.00001506	      0.00004519	      0.00002542	     -0.00281346	      0.00046538	      0.00055846	      0.00217538	      0.00763225	      0.00530939	     -0.00711606	      0.01718178	     -0.01629689	      0.00217538	      0.00763225	      0.00530939	      0.00047932	      0.01592818	     -0.00836967	      0.00355935	      0.00424420	      0.01494182	      0.00000000	      0.00588214	      0.00000000	     -0.00623116	     -0.02879608	     -0.00483704	      0.02166470	     -0.00287831	     -0.04507779	     -0.00077429	      0.01297851	     -0.00530939	      0.00213851	      0.01873036	     -0.01548573	     -0.00519878	      0.01124559	     -0.00475633	     -0.01084001	      0.02374478	     -0.02658383	     -0.02035267	      0.01257294	     -0.00637865	     -0.01349471	      0.02743186	     -0.03322057
      1.83333333	     -0.27883956	      0.11810328	     -0.11810328	      0.27883956	     -0.05645934	      0.45628452	      0.20509675	     -0.20509675	     -0.45628452	      0.05645934	    113.96327575	     66.01774479	     -1.98903439	    -88.55296279	     43.50058988	     82.40501727	      0.42874730	     -1.20145893	      0.43140907	     -0.60072947	    -13.64990163	      1.19838064	    -33.93566446	      0.45466549	     -2.24951075	    -12.45497103	     21.55102863	    -32.76374704	    -30.52521606	    -12.11146231	     29.03506546	     18.90048497	    -56.29038891	    -10.26805268	     24.97336714	     26.96045450	    -76.25353032	     -5.97246275	     28.96967884	      5.06572360	      0.00133886	     -0.03258583	     -0.00510309	      0.01459673	     -0.02201715	     -0.00168261	      0.00146120	     -0.06883712	     -0.00668817	      0.01232702	     -0.18235764	     -0.00001035	     -0.00988858	      0.00338273	     -0.00064529	      0.00002040	      0.00000816	      0.00004079	      0.00002611	      0.00007832	      0.00004406	     -0.00259427	      0.00044476	      0.00053371	      0.00216392	      0.00759205	      0.00528142	     -0.00707858	      0.01709128	     -0.01621104	      0.00216392	      0.00759205	      0.00528142	      0.00047680	      0.01584427	     -0.00832558	      0.00354484	      0.00422184	      0.01490067	      0.00000000	      0.00582015	      0.00000000	     -0.00619834	     -0.02864439	     -0.00478540	      0.02190605	     -0.00285770	     -0.04467760	     -0.00077021	      0.01291015	     -0.00528142	      0.00212724	      0.01863169	     -0.01540415	     -0.00517139	      0.01118635	     -0.00473128	     -0.01078291	      0.02361970	     -0.02644380	     -0.02024546	      0.01250671	     -0.00634504	     -0.01342362	      0.02728736	     -0.03304558
      1.86666667	     -0.27880221	      0.11808746	     -0.11808746	      0.27880221	     -0.05645178	      0.45622339	      0.20506928	     -0.20506928	     -0.45622339	      0.05645178	    114.21681216	     66.00890090	     -1.99345943	    -89.20661531	     43.71243610	     84.82893412	      0.43224807	     -1.21084211	      0.43369296	     -0.60542106	    -14.17410896	      1.99013571	    -35.98754851	      7.01438740	      0.01636478	    -13.75053836	     19.31596123	    -37.21805559	    -26.82765290	    -13.47198160	     25.29763835	     13.93429666	    -54.75812289	    -11.52920521	     23.98833498	     22.29231725	    -75.10760456	     -6.79557533	     26.47920647	      5.21424435	      0.00134587	     -0.03261011	     -0.00510700	      0.01435945	     -0.02207470	     -0.00127566	      0.00128210	     -0.06895293	     -0.00688343	      0.01260368	     -0.18227720	      0.00005204	     -0.01017945	      0.00351395	     -0.00071997	      0.00001104	      0.00000442	      0.00002208	      0.00001413	      0.00004240	      0.00002385	     -0.00281978	      0.00046597	      0.00055916	      0.00216363	      0.00759103	      0.00528072	     -0.00707763	      0.01708899	     -0.01620887	      0.00216363	      0.00759103	      0.00528072	      0.00047673	      0.01584215	     -0.00832446	      0.00354447	      0.00422128	      0.01489962	      0.00000000	      0.00581859	      0.00000000	     -0.00619751	     -0.02864055	     -0.00478410	      0.02168089	     -0.00287695	     -0.04505143	     -0.00077010	      0.01290842	     -0.00528072	      0.00212696	      0.01862919	     -0.01540209	     -0.00517070	      0.01118485	     -0.00473064	     -0.01078146	      0.02361654	     -0.02644025	     -0.02024275	      0.01250503	     -0.00634419	     -0.01342182	      0.02728370	     -0.03304115
      1.90000000	     -0.27880418	      0.11808829	     -0.11808829	      0.27880418	     -0.05645217	      0.45622662	      0.20507072	     -0.20507072	     -0.45622662	      0.05645217	    114.22757443	     66.00936709	     -1.99364727	    -89.21437014	     43.82511097	     85.39766796	      0.43218032	     -1.21058466	      0.43364895	     -0.60529233	    -14.16464105	      1.64300812	    -35.67605991	      8.08652929	     -0.23146058	    -13.77554486	     20.41134744	    -37.04447253	    -27.84171605	    -13.42364933	     25.66721448	     12.78401748	    -55.87308913	    -11.39852275	     25.29202311	     21.33210995	    -76.64969785	     -6.56976031	     27.78801614	      5.18188995	      0.00134960	     -0.03262303	     -0.00510908	      0.01430176	     -0.02210531	     -0.00117894	      0.00124008	     -0.06898010	     -0.00692924	      0.01266886	     -0.18225808	      0.00006734	     -0.01024770	      0.00354502	     -0.00073798	      0.00001130	      0.00000452	      0.00002260	      0.00001446	      0.00004339	      0.00002441	     -0.00281560	      0.00046558	      0.00055870	      0.00216364	      0.00759108	      0.00528075	     -0.00707768	      0.01708911	     -0.01620898	      0.00216364	      0.00759108	      0.00528075	      0.00047673	      0.01584226	     -0.00832452	      0.00354449	      0.00422131	      0.01489968	      0.00000000	      0.00581867	      0.00000000	     -0.00619755	     -0.02864076	     -0.00478417	      0.02167817	     -0.00287718	     -0.04505583	     -0.00077011	      0.01290851	     -0.00528075	      0.00212697	      0.01862933	     -0.01540220	     -0.00517074	      0.01118493	     -0.00473068	     -0.01078154	      0.02361670	     -0.02644044	     -0.02024289	      0.01250512	     -0.00634424	     -0.01342192	      0.02728389	     -0.03304138
